<?xml version="1.0" encoding="UTF-8"?>
<svg version="1.1" xmlns="http://www.w3.org/2000/svg" width="370" height="370">
<path d="M0 0 C122.1 0 244.2 0 370 0 C370 122.1 370 244.2 370 370 C247.9 370 125.8 370 0 370 C0 247.9 0 125.8 0 0 Z " fill="#FFFFFF" transform="translate(0,0)"/>
<path d="M0 0 C6.6 0 13.2 0 20 0 C20 3.3 20 6.6 20 10 C23.3 10 26.6 10 30 10 C30 19.9 30 29.8 30 40 C33.3 40 36.6 40 40 40 C40 33.4 40 26.8 40 20 C46.6 20 53.2 20 60 20 C60 26.6 60 33.2 60 40 C63.3 40 66.6 40 70 40 C70 36.7 70 33.4 70 30 C76.6 30 83.2 30 90 30 C90 43.2 90 56.4 90 70 C93.3 70 96.6 70 100 70 C100 66.7 100 63.4 100 60 C103.3 60 106.6 60 110 60 C110 66.6 110 73.2 110 80 C113.3 80 116.6 80 120 80 C120 83.3 120 86.6 120 90 C123.3 90 126.6 90 130 90 C130 96.6 130 103.2 130 110 C136.6 110 143.2 110 150 110 C150 103.4 150 96.8 150 90 C153.3 90 156.6 90 160 90 C160 93.3 160 96.6 160 100 C166.6 100 173.2 100 180 100 C180 106.6 180 113.2 180 120 C183.3 120 186.6 120 190 120 C190 123.3 190 126.6 190 130 C183.4 130 176.8 130 170 130 C170 126.7 170 123.4 170 120 C166.7 120 163.4 120 160 120 C160 123.3 160 126.6 160 130 C156.7 130 153.4 130 150 130 C150 126.7 150 123.4 150 120 C143.4 120 136.8 120 130 120 C130 123.3 130 126.6 130 130 C133.3 130 136.6 130 140 130 C140 133.3 140 136.6 140 140 C136.7 140 133.4 140 130 140 C130 143.3 130 146.6 130 150 C126.7 150 123.4 150 120 150 C120 146.7 120 143.4 120 140 C110.1 140 100.2 140 90 140 C90 143.3 90 146.6 90 150 C86.7 150 83.4 150 80 150 C80 156.6 80 163.2 80 170 C83.3 170 86.6 170 90 170 C90 176.6 90 183.2 90 190 C93.3 190 96.6 190 100 190 C100 193.3 100 196.6 100 200 C103.3 200 106.6 200 110 200 C110 193.4 110 186.8 110 180 C106.7 180 103.4 180 100 180 C100 170.1 100 160.2 100 150 C103.3 150 106.6 150 110 150 C110 153.3 110 156.6 110 160 C113.3 160 116.6 160 120 160 C120 163.3 120 166.6 120 170 C123.3 170 126.6 170 130 170 C130 166.7 130 163.4 130 160 C133.3 160 136.6 160 140 160 C140 169.9 140 179.8 140 190 C136.7 190 133.4 190 130 190 C130 193.3 130 196.6 130 200 C136.6 200 143.2 200 150 200 C150 209.9 150 219.8 150 230 C156.6 230 163.2 230 170 230 C170 233.3 170 236.6 170 240 C163.4 240 156.8 240 150 240 C150 243.3 150 246.6 150 250 C156.6 250 163.2 250 170 250 C170 256.6 170 263.2 170 270 C163.4 270 156.8 270 150 270 C150 276.6 150 283.2 150 290 C143.4 290 136.8 290 130 290 C130 286.7 130 283.4 130 280 C126.7 280 123.4 280 120 280 C120 283.3 120 286.6 120 290 C113.4 290 106.8 290 100 290 C100 286.7 100 283.4 100 280 C96.7 280 93.4 280 90 280 C90 283.3 90 286.6 90 290 C86.7 290 83.4 290 80 290 C80 286.7 80 283.4 80 280 C76.7 280 73.4 280 70 280 C70 283.3 70 286.6 70 290 C63.4 290 56.8 290 50 290 C50 286.7 50 283.4 50 280 C43.4 280 36.8 280 30 280 C30 283.3 30 286.6 30 290 C26.7 290 23.4 290 20 290 C20 283.4 20 276.8 20 270 C10.1 270 0.2 270 -10 270 C-10 266.7 -10 263.4 -10 260 C-13.3 260 -16.6 260 -20 260 C-20 256.7 -20 253.4 -20 250 C-16.7 250 -13.4 250 -10 250 C-10 246.7 -10 243.4 -10 240 C-13.3 240 -16.6 240 -20 240 C-20 236.7 -20 233.4 -20 230 C-16.7 230 -13.4 230 -10 230 C-10 226.7 -10 223.4 -10 220 C-13.3 220 -16.6 220 -20 220 C-20 216.7 -20 213.4 -20 210 C-29.9 210 -39.8 210 -50 210 C-50 206.7 -50 203.4 -50 200 C-53.3 200 -56.6 200 -60 200 C-60 203.3 -60 206.6 -60 210 C-66.6 210 -73.2 210 -80 210 C-80 203.4 -80 196.8 -80 190 C-76.7 190 -73.4 190 -70 190 C-70 186.7 -70 183.4 -70 180 C-63.4 180 -56.8 180 -50 180 C-50 173.4 -50 166.8 -50 160 C-43.4 160 -36.8 160 -30 160 C-30 156.7 -30 153.4 -30 150 C-36.6 150 -43.2 150 -50 150 C-50 140.1 -50 130.2 -50 120 C-43.4 120 -36.8 120 -30 120 C-30 116.7 -30 113.4 -30 110 C-39.9 110 -49.8 110 -60 110 C-60 113.3 -60 116.6 -60 120 C-63.3 120 -66.6 120 -70 120 C-70 113.4 -70 106.8 -70 100 C-76.6 100 -83.2 100 -90 100 C-90 96.7 -90 93.4 -90 90 C-83.4 90 -76.8 90 -70 90 C-70 86.7 -70 83.4 -70 80 C-66.7 80 -63.4 80 -60 80 C-60 86.6 -60 93.2 -60 100 C-46.8 100 -33.6 100 -20 100 C-20 106.6 -20 113.2 -20 120 C-13.4 120 -6.8 120 0 120 C0 123.3 0 126.6 0 130 C3.3 130 6.6 130 10 130 C10 136.6 10 143.2 10 150 C6.7 150 3.4 150 0 150 C0 153.3 0 156.6 0 160 C6.6 160 13.2 160 20 160 C20 163.3 20 166.6 20 170 C23.3 170 26.6 170 30 170 C30 166.7 30 163.4 30 160 C33.3 160 36.6 160 40 160 C40 163.3 40 166.6 40 170 C49.9 170 59.8 170 70 170 C70 160.1 70 150.2 70 140 C63.4 140 56.8 140 50 140 C50 143.3 50 146.6 50 150 C43.4 150 36.8 150 30 150 C30 146.7 30 143.4 30 140 C26.7 140 23.4 140 20 140 C20 133.4 20 126.8 20 120 C23.3 120 26.6 120 30 120 C30 116.7 30 113.4 30 110 C23.4 110 16.8 110 10 110 C10 106.7 10 103.4 10 100 C13.3 100 16.6 100 20 100 C20 96.7 20 93.4 20 90 C13.4 90 6.8 90 0 90 C0 86.7 0 83.4 0 80 C-3.3 80 -6.6 80 -10 80 C-10 76.7 -10 73.4 -10 70 C-6.7 70 -3.4 70 0 70 C0 56.8 0 43.6 0 30 C-3.3 30 -6.6 30 -10 30 C-10 23.4 -10 16.8 -10 10 C-6.7 10 -3.4 10 0 10 C0 6.7 0 3.4 0 0 Z " fill="#FFFFFF" transform="translate(140,40)"/>
<path d="M0 0 C3.3 0 6.6 0 10 0 C10 3.3 10 6.6 10 10 C13.3 10 16.6 10 20 10 C20 13.3 20 16.6 20 20 C23.3 20 26.6 20 30 20 C30 16.7 30 13.4 30 10 C33.3 10 36.6 10 40 10 C40 19.9 40 29.8 40 40 C36.7 40 33.4 40 30 40 C30 43.3 30 46.6 30 50 C36.6 50 43.2 50 50 50 C50 59.9 50 69.8 50 80 C56.6 80 63.2 80 70 80 C70 83.3 70 86.6 70 90 C63.4 90 56.8 90 50 90 C50 93.3 50 96.6 50 100 C56.6 100 63.2 100 70 100 C70 106.6 70 113.2 70 120 C63.4 120 56.8 120 50 120 C50 126.6 50 133.2 50 140 C43.4 140 36.8 140 30 140 C30 136.7 30 133.4 30 130 C26.7 130 23.4 130 20 130 C20 133.3 20 136.6 20 140 C13.4 140 6.8 140 0 140 C0 136.7 0 133.4 0 130 C-3.3 130 -6.6 130 -10 130 C-10 133.3 -10 136.6 -10 140 C-13.3 140 -16.6 140 -20 140 C-20 136.7 -20 133.4 -20 130 C-23.3 130 -26.6 130 -30 130 C-30 133.3 -30 136.6 -30 140 C-36.6 140 -43.2 140 -50 140 C-50 136.7 -50 133.4 -50 130 C-56.6 130 -63.2 130 -70 130 C-70 133.3 -70 136.6 -70 140 C-73.3 140 -76.6 140 -80 140 C-80 133.4 -80 126.8 -80 120 C-89.9 120 -99.8 120 -110 120 C-110 116.7 -110 113.4 -110 110 C-113.3 110 -116.6 110 -120 110 C-120 106.7 -120 103.4 -120 100 C-116.7 100 -113.4 100 -110 100 C-110 96.7 -110 93.4 -110 90 C-113.3 90 -116.6 90 -120 90 C-120 86.7 -120 83.4 -120 80 C-116.7 80 -113.4 80 -110 80 C-110 76.7 -110 73.4 -110 70 C-113.3 70 -116.6 70 -120 70 C-120 66.7 -120 63.4 -120 60 C-129.9 60 -139.8 60 -150 60 C-150 56.7 -150 53.4 -150 50 C-136.8 50 -123.6 50 -110 50 C-110 46.7 -110 43.4 -110 40 C-103.4 40 -96.8 40 -90 40 C-90 43.3 -90 46.6 -90 50 C-86.7 50 -83.4 50 -80 50 C-80 53.3 -80 56.6 -80 60 C-76.7 60 -73.4 60 -70 60 C-70 76.5 -70 93 -70 110 C-66.7 110 -63.4 110 -60 110 C-60 113.3 -60 116.6 -60 120 C-56.7 120 -53.4 120 -50 120 C-50 113.4 -50 106.8 -50 100 C-46.7 100 -43.4 100 -40 100 C-40 96.7 -40 93.4 -40 90 C-46.6 90 -53.2 90 -60 90 C-60 86.7 -60 83.4 -60 80 C-53.4 80 -46.8 80 -40 80 C-40 76.7 -40 73.4 -40 70 C-33.4 70 -26.8 70 -20 70 C-20 76.6 -20 83.2 -20 90 C-23.3 90 -26.6 90 -30 90 C-30 93.3 -30 96.6 -30 100 C-26.7 100 -23.4 100 -20 100 C-20 103.3 -20 106.6 -20 110 C-16.7 110 -13.4 110 -10 110 C-10 106.7 -10 103.4 -10 100 C-6.7 100 -3.4 100 0 100 C0 83.5 0 67 0 50 C3.3 50 6.6 50 10 50 C10 43.4 10 36.8 10 30 C6.7 30 3.4 30 0 30 C0 20.1 0 10.2 0 0 Z " fill="#000000" transform="translate(240,190)"/>
<path d="M0 0 C3.3 0 6.6 0 10 0 C10 6.6 10 13.2 10 20 C23.2 20 36.4 20 50 20 C50 26.6 50 33.2 50 40 C56.6 40 63.2 40 70 40 C70 43.3 70 46.6 70 50 C73.3 50 76.6 50 80 50 C80 56.6 80 63.2 80 70 C76.7 70 73.4 70 70 70 C70 73.3 70 76.6 70 80 C76.6 80 83.2 80 90 80 C90 89.9 90 99.8 90 110 C93.3 110 96.6 110 100 110 C100 106.7 100 103.4 100 100 C103.3 100 106.6 100 110 100 C110 106.6 110 113.2 110 120 C113.3 120 116.6 120 120 120 C120 116.7 120 113.4 120 110 C126.6 110 133.2 110 140 110 C140 116.6 140 123.2 140 130 C146.6 130 153.2 130 160 130 C160 126.7 160 123.4 160 120 C163.3 120 166.6 120 170 120 C170 136.5 170 153 170 170 C166.7 170 163.4 170 160 170 C160 173.3 160 176.6 160 180 C156.7 180 153.4 180 150 180 C150 176.7 150 173.4 150 170 C146.7 170 143.4 170 140 170 C140 166.7 140 163.4 140 160 C143.3 160 146.6 160 150 160 C150 153.4 150 146.8 150 140 C143.4 140 136.8 140 130 140 C130 143.3 130 146.6 130 150 C123.4 150 116.8 150 110 150 C110 153.3 110 156.6 110 160 C116.6 160 123.2 160 130 160 C130 163.3 130 166.6 130 170 C126.7 170 123.4 170 120 170 C120 176.6 120 183.2 120 190 C116.7 190 113.4 190 110 190 C110 186.7 110 183.4 110 180 C106.7 180 103.4 180 100 180 C100 163.5 100 147 100 130 C96.7 130 93.4 130 90 130 C90 126.7 90 123.4 90 120 C86.7 120 83.4 120 80 120 C80 116.7 80 113.4 80 110 C73.4 110 66.8 110 60 110 C60 113.3 60 116.6 60 120 C43.5 120 27 120 10 120 C10 123.3 10 126.6 10 130 C3.4 130 -3.2 130 -10 130 C-10 123.4 -10 116.8 -10 110 C-6.7 110 -3.4 110 0 110 C0 106.7 0 103.4 0 100 C6.6 100 13.2 100 20 100 C20 93.4 20 86.8 20 80 C26.6 80 33.2 80 40 80 C40 76.7 40 73.4 40 70 C33.4 70 26.8 70 20 70 C20 60.1 20 50.2 20 40 C26.6 40 33.2 40 40 40 C40 36.7 40 33.4 40 30 C30.1 30 20.2 30 10 30 C10 33.3 10 36.6 10 40 C6.7 40 3.4 40 0 40 C0 33.4 0 26.8 0 20 C-6.6 20 -13.2 20 -20 20 C-20 16.7 -20 13.4 -20 10 C-13.4 10 -6.8 10 0 10 C0 6.7 0 3.4 0 0 Z " fill="#FFFFFF" transform="translate(70,120)"/>
<path d="M0 0 C3.3 0 6.6 0 10 0 C10 3.3 10 6.6 10 10 C13.3 10 16.6 10 20 10 C20 16.6 20 23.2 20 30 C26.6 30 33.2 30 40 30 C40 23.4 40 16.8 40 10 C43.3 10 46.6 10 50 10 C50 13.3 50 16.6 50 20 C56.6 20 63.2 20 70 20 C70 26.6 70 33.2 70 40 C73.3 40 76.6 40 80 40 C80 43.3 80 46.6 80 50 C73.4 50 66.8 50 60 50 C60 46.7 60 43.4 60 40 C56.7 40 53.4 40 50 40 C50 43.3 50 46.6 50 50 C46.7 50 43.4 50 40 50 C40 46.7 40 43.4 40 40 C33.4 40 26.8 40 20 40 C20 43.3 20 46.6 20 50 C23.3 50 26.6 50 30 50 C30 53.3 30 56.6 30 60 C26.7 60 23.4 60 20 60 C20 63.3 20 66.6 20 70 C16.7 70 13.4 70 10 70 C10 66.7 10 63.4 10 60 C0.1 60 -9.8 60 -20 60 C-20 63.3 -20 66.6 -20 70 C-23.3 70 -26.6 70 -30 70 C-30 76.6 -30 83.2 -30 90 C-26.7 90 -23.4 90 -20 90 C-20 96.6 -20 103.2 -20 110 C-16.7 110 -13.4 110 -10 110 C-10 113.3 -10 116.6 -10 120 C-13.3 120 -16.6 120 -20 120 C-20 123.3 -20 126.6 -20 130 C-26.6 130 -33.2 130 -40 130 C-40 123.4 -40 116.8 -40 110 C-46.6 110 -53.2 110 -60 110 C-60 113.3 -60 116.6 -60 120 C-63.3 120 -66.6 120 -70 120 C-70 113.4 -70 106.8 -70 100 C-73.3 100 -76.6 100 -80 100 C-80 103.3 -80 106.6 -80 110 C-83.3 110 -86.6 110 -90 110 C-90 103.4 -90 96.8 -90 90 C-86.7 90 -83.4 90 -80 90 C-80 86.7 -80 83.4 -80 80 C-76.7 80 -73.4 80 -70 80 C-70 83.3 -70 86.6 -70 90 C-60.1 90 -50.2 90 -40 90 C-40 80.1 -40 70.2 -40 60 C-46.6 60 -53.2 60 -60 60 C-60 63.3 -60 66.6 -60 70 C-66.6 70 -73.2 70 -80 70 C-80 66.7 -80 63.4 -80 60 C-83.3 60 -86.6 60 -90 60 C-90 53.4 -90 46.8 -90 40 C-86.7 40 -83.4 40 -80 40 C-80 43.3 -80 46.6 -80 50 C-76.7 50 -73.4 50 -70 50 C-70 46.7 -70 43.4 -70 40 C-63.4 40 -56.8 40 -50 40 C-50 43.3 -50 46.6 -50 50 C-46.7 50 -43.4 50 -40 50 C-40 46.7 -40 43.4 -40 40 C-36.7 40 -33.4 40 -30 40 C-30 43.3 -30 46.6 -30 50 C-23.4 50 -16.8 50 -10 50 C-10 43.4 -10 36.8 -10 30 C-6.7 30 -3.4 30 0 30 C0 26.7 0 23.4 0 20 C-3.3 20 -6.6 20 -10 20 C-10 16.7 -10 13.4 -10 10 C-6.7 10 -3.4 10 0 10 C0 6.7 0 3.4 0 0 Z " fill="#000000" transform="translate(250,120)"/>
<path d="M0 0 C23.1 0 46.2 0 70 0 C70 23.1 70 46.2 70 70 C46.9 70 23.8 70 0 70 C0 46.9 0 23.8 0 0 Z " fill="#FFFFFF" transform="translate(40,260)"/>
<path d="M0 0 C23.1 0 46.2 0 70 0 C70 23.1 70 46.2 70 70 C46.9 70 23.8 70 0 70 C0 46.9 0 23.8 0 0 Z " fill="#FFFFFF" transform="translate(260,40)"/>
<path d="M0 0 C23.1 0 46.2 0 70 0 C70 23.1 70 46.2 70 70 C46.9 70 23.8 70 0 70 C0 46.9 0 23.8 0 0 Z " fill="#FFFFFF" transform="translate(40,40)"/>
<path d="M0 0 C6.6 0 13.2 0 20 0 C20 6.6 20 13.2 20 20 C23.3 20 26.6 20 30 20 C30 16.7 30 13.4 30 10 C33.3 10 36.6 10 40 10 C40 13.3 40 16.6 40 20 C43.3 20 46.6 20 50 20 C50 16.7 50 13.4 50 10 C53.3 10 56.6 10 60 10 C60 19.9 60 29.8 60 40 C56.7 40 53.4 40 50 40 C50 43.3 50 46.6 50 50 C53.3 50 56.6 50 60 50 C60 53.3 60 56.6 60 60 C56.7 60 53.4 60 50 60 C50 66.6 50 73.2 50 80 C43.4 80 36.8 80 30 80 C30 76.7 30 73.4 30 70 C26.7 70 23.4 70 20 70 C20 73.3 20 76.6 20 80 C16.7 80 13.4 80 10 80 C10 76.7 10 73.4 10 70 C3.4 70 -3.2 70 -10 70 C-10 73.3 -10 76.6 -10 80 C-13.3 80 -16.6 80 -20 80 C-20 73.4 -20 66.8 -20 60 C-26.6 60 -33.2 60 -40 60 C-40 56.7 -40 53.4 -40 50 C-36.7 50 -33.4 50 -30 50 C-30 46.7 -30 43.4 -30 40 C-23.4 40 -16.8 40 -10 40 C-10 43.3 -10 46.6 -10 50 C-6.7 50 -3.4 50 0 50 C0 46.7 0 43.4 0 40 C3.3 40 6.6 40 10 40 C10 36.7 10 33.4 10 30 C6.7 30 3.4 30 0 30 C0 26.7 0 23.4 0 20 C3.3 20 6.6 20 10 20 C10 16.7 10 13.4 10 10 C6.7 10 3.4 10 0 10 C0 6.7 0 3.4 0 0 Z " fill="#000000" transform="translate(190,90)"/>
<path d="M0 0 C6.6 0 13.2 0 20 0 C20 3.3 20 6.6 20 10 C23.3 10 26.6 10 30 10 C30 13.3 30 16.6 30 20 C33.3 20 36.6 20 40 20 C40 36.5 40 53 40 70 C43.3 70 46.6 70 50 70 C50 73.3 50 76.6 50 80 C53.3 80 56.6 80 60 80 C60 83.3 60 86.6 60 90 C53.4 90 46.8 90 40 90 C40 93.3 40 96.6 40 100 C36.7 100 33.4 100 30 100 C30 93.4 30 86.8 30 80 C20.1 80 10.2 80 0 80 C0 76.7 0 73.4 0 70 C-3.3 70 -6.6 70 -10 70 C-10 66.7 -10 63.4 -10 60 C-6.7 60 -3.4 60 0 60 C0 56.7 0 53.4 0 50 C-3.3 50 -6.6 50 -10 50 C-10 46.7 -10 43.4 -10 40 C-6.7 40 -3.4 40 0 40 C0 36.7 0 33.4 0 30 C-3.3 30 -6.6 30 -10 30 C-10 26.7 -10 23.4 -10 20 C-19.9 20 -29.8 20 -40 20 C-40 16.7 -40 13.4 -40 10 C-26.8 10 -13.6 10 0 10 C0 6.7 0 3.4 0 0 Z " fill="#000000" transform="translate(130,230)"/>
<path d="M0 0 C3.3 0 6.6 0 10 0 C10 6.6 10 13.2 10 20 C23.2 20 36.4 20 50 20 C50 26.6 50 33.2 50 40 C56.6 40 63.2 40 70 40 C70 43.3 70 46.6 70 50 C73.3 50 76.6 50 80 50 C80 56.6 80 63.2 80 70 C76.7 70 73.4 70 70 70 C70 73.3 70 76.6 70 80 C76.6 80 83.2 80 90 80 C90 83.3 90 86.6 90 90 C86.7 90 83.4 90 80 90 C80 93.3 80 96.6 80 100 C73.4 100 66.8 100 60 100 C60 90.1 60 80.2 60 70 C56.7 70 53.4 70 50 70 C50 73.3 50 76.6 50 80 C46.7 80 43.4 80 40 80 C40 76.7 40 73.4 40 70 C33.4 70 26.8 70 20 70 C20 60.1 20 50.2 20 40 C26.6 40 33.2 40 40 40 C40 36.7 40 33.4 40 30 C30.1 30 20.2 30 10 30 C10 33.3 10 36.6 10 40 C6.7 40 3.4 40 0 40 C0 33.4 0 26.8 0 20 C-6.6 20 -13.2 20 -20 20 C-20 16.7 -20 13.4 -20 10 C-13.4 10 -6.8 10 0 10 C0 6.7 0 3.4 0 0 Z " fill="#000000" transform="translate(70,120)"/>
<path d="M0 0 C23.1 0 46.2 0 70 0 C70 23.1 70 46.2 70 70 C46.9 70 23.8 70 0 70 C0 46.9 0 23.8 0 0 Z M10 10 C10 26.5 10 43 10 60 C26.5 60 43 60 60 60 C60 43.5 60 27 60 10 C43.5 10 27 10 10 10 Z " fill="#000000" transform="translate(40,260)"/>
<path d="M0 0 C23.1 0 46.2 0 70 0 C70 23.1 70 46.2 70 70 C46.9 70 23.8 70 0 70 C0 46.9 0 23.8 0 0 Z M10 10 C10 26.5 10 43 10 60 C26.5 60 43 60 60 60 C60 43.5 60 27 60 10 C43.5 10 27 10 10 10 Z " fill="#000000" transform="translate(260,40)"/>
<path d="M0 0 C23.1 0 46.2 0 70 0 C70 23.1 70 46.2 70 70 C46.9 70 23.8 70 0 70 C0 46.9 0 23.8 0 0 Z M10 10 C10 26.5 10 43 10 60 C26.5 60 43 60 60 60 C60 43.5 60 27 60 10 C43.5 10 27 10 10 10 Z " fill="#000000" transform="translate(40,40)"/>
<path d="M0 0 C6.6 0 13.2 0 20 0 C20 3.3 20 6.6 20 10 C16.7 10 13.4 10 10 10 C10 16.6 10 23.2 10 30 C13.3 30 16.6 30 20 30 C20 33.3 20 36.6 20 40 C26.6 40 33.2 40 40 40 C40 36.7 40 33.4 40 30 C46.6 30 53.2 30 60 30 C60 39.9 60 49.8 60 60 C50.1 60 40.2 60 30 60 C30 56.7 30 53.4 30 50 C26.7 50 23.4 50 20 50 C20 53.3 20 56.6 20 60 C16.7 60 13.4 60 10 60 C10 56.7 10 53.4 10 50 C3.4 50 -3.2 50 -10 50 C-10 46.7 -10 43.4 -10 40 C-6.7 40 -3.4 40 0 40 C0 33.4 0 26.8 0 20 C-3.3 20 -6.6 20 -10 20 C-10 16.7 -10 13.4 -10 10 C-6.7 10 -3.4 10 0 10 C0 6.7 0 3.4 0 0 Z " fill="#FFFFFF" transform="translate(150,150)"/>
<path d="M0 0 C3.3 0 6.6 0 10 0 C10 3.3 10 6.6 10 10 C19.9 10 29.8 10 40 10 C40 13.3 40 16.6 40 20 C43.3 20 46.6 20 50 20 C50 16.7 50 13.4 50 10 C53.3 10 56.6 10 60 10 C60 16.6 60 23.2 60 30 C63.3 30 66.6 30 70 30 C70 33.3 70 36.6 70 40 C66.7 40 63.4 40 60 40 C60 43.3 60 46.6 60 50 C53.4 50 46.8 50 40 50 C40 43.4 40 36.8 40 30 C33.4 30 26.8 30 20 30 C20 33.3 20 36.6 20 40 C16.7 40 13.4 40 10 40 C10 33.4 10 26.8 10 20 C6.7 20 3.4 20 0 20 C0 23.3 0 26.6 0 30 C-3.3 30 -6.6 30 -10 30 C-10 23.4 -10 16.8 -10 10 C-6.7 10 -3.4 10 0 10 C0 6.7 0 3.4 0 0 Z " fill="#000000" transform="translate(170,200)"/>
<path d="M0 0 C6.6 0 13.2 0 20 0 C20 6.6 20 13.2 20 20 C26.6 20 33.2 20 40 20 C40 16.7 40 13.4 40 10 C43.3 10 46.6 10 50 10 C50 26.5 50 43 50 60 C46.7 60 43.4 60 40 60 C40 63.3 40 66.6 40 70 C36.7 70 33.4 70 30 70 C30 66.7 30 63.4 30 60 C26.7 60 23.4 60 20 60 C20 56.7 20 53.4 20 50 C23.3 50 26.6 50 30 50 C30 43.4 30 36.8 30 30 C23.4 30 16.8 30 10 30 C10 23.4 10 16.8 10 10 C6.7 10 3.4 10 0 10 C0 6.7 0 3.4 0 0 Z " fill="#FFFFFF" transform="translate(190,230)"/>
<path d="M0 0 C6.6 0 13.2 0 20 0 C20 3.3 20 6.6 20 10 C23.3 10 26.6 10 30 10 C30 19.9 30 29.8 30 40 C23.4 40 16.8 40 10 40 C10 36.7 10 33.4 10 30 C3.4 30 -3.2 30 -10 30 C-10 26.7 -10 23.4 -10 20 C-19.9 20 -29.8 20 -40 20 C-40 16.7 -40 13.4 -40 10 C-26.8 10 -13.6 10 0 10 C0 6.7 0 3.4 0 0 Z " fill="#000000" transform="translate(130,230)"/>
<path d="M0 0 C3.3 0 6.6 0 10 0 C10 6.6 10 13.2 10 20 C23.2 20 36.4 20 50 20 C50 33.2 50 46.4 50 60 C43.4 60 36.8 60 30 60 C30 56.7 30 53.4 30 50 C33.3 50 36.6 50 40 50 C40 43.4 40 36.8 40 30 C30.1 30 20.2 30 10 30 C10 33.3 10 36.6 10 40 C6.7 40 3.4 40 0 40 C0 33.4 0 26.8 0 20 C-6.6 20 -13.2 20 -20 20 C-20 16.7 -20 13.4 -20 10 C-13.4 10 -6.8 10 0 10 C0 6.7 0 3.4 0 0 Z " fill="#000000" transform="translate(70,120)"/>
<path d="M0 0 C3.3 0 6.6 0 10 0 C10 3.3 10 6.6 10 10 C16.6 10 23.2 10 30 10 C30 16.6 30 23.2 30 30 C33.3 30 36.6 30 40 30 C40 33.3 40 36.6 40 40 C33.4 40 26.8 40 20 40 C20 36.7 20 33.4 20 30 C16.7 30 13.4 30 10 30 C10 33.3 10 36.6 10 40 C6.7 40 3.4 40 0 40 C0 36.7 0 33.4 0 30 C-6.6 30 -13.2 30 -20 30 C-20 26.7 -20 23.4 -20 20 C-13.4 20 -6.8 20 0 20 C0 13.4 0 6.8 0 0 Z " fill="#000000" transform="translate(290,130)"/>
<path d="M0 0 C6.6 0 13.2 0 20 0 C20 3.3 20 6.6 20 10 C26.6 10 33.2 10 40 10 C40 16.6 40 23.2 40 30 C33.4 30 26.8 30 20 30 C20 26.7 20 23.4 20 20 C16.7 20 13.4 20 10 20 C10 23.3 10 26.6 10 30 C6.7 30 3.4 30 0 30 C0 26.7 0 23.4 0 20 C-6.6 20 -13.2 20 -20 20 C-20 16.7 -20 13.4 -20 10 C-13.4 10 -6.8 10 0 10 C0 6.7 0 3.4 0 0 Z " fill="#FFFFFF" transform="translate(200,140)"/>
<path d="M0 0 C9.9 0 19.8 0 30 0 C30 9.9 30 19.8 30 30 C20.1 30 10.2 30 0 30 C0 20.1 0 10.2 0 0 Z " fill="#000000" transform="translate(60,280)"/>
<path d="M0 0 C9.9 0 19.8 0 30 0 C30 9.9 30 19.8 30 30 C20.1 30 10.2 30 0 30 C0 20.1 0 10.2 0 0 Z " fill="#FFFFFF" transform="translate(250,250)"/>
<path d="M0 0 C9.9 0 19.8 0 30 0 C30 9.9 30 19.8 30 30 C20.1 30 10.2 30 0 30 C0 20.1 0 10.2 0 0 Z " fill="#000000" transform="translate(280,60)"/>
<path d="M0 0 C9.9 0 19.8 0 30 0 C30 9.9 30 19.8 30 30 C20.1 30 10.2 30 0 30 C0 20.1 0 10.2 0 0 Z " fill="#000000" transform="translate(60,60)"/>
<path d="M0 0 C6.6 0 13.2 0 20 0 C20 6.6 20 13.2 20 20 C16.7 20 13.4 20 10 20 C10 26.6 10 33.2 10 40 C6.7 40 3.4 40 0 40 C0 33.4 0 26.8 0 20 C-6.6 20 -13.2 20 -20 20 C-20 16.7 -20 13.4 -20 10 C-13.4 10 -6.8 10 0 10 C0 6.7 0 3.4 0 0 Z " fill="#000000" transform="translate(200,260)"/>
<path d="M0 0 C6.6 0 13.2 0 20 0 C20 6.6 20 13.2 20 20 C16.7 20 13.4 20 10 20 C10 23.3 10 26.6 10 30 C3.4 30 -3.2 30 -10 30 C-10 23.4 -10 16.8 -10 10 C-6.7 10 -3.4 10 0 10 C0 6.7 0 3.4 0 0 Z " fill="#000000" transform="translate(70,220)"/>
<path d="M0 0 C13.2 0 26.4 0 40 0 C40 3.3 40 6.6 40 10 C36.7 10 33.4 10 30 10 C30 16.6 30 23.2 30 30 C26.7 30 23.4 30 20 30 C20 23.4 20 16.8 20 10 C16.7 10 13.4 10 10 10 C10 13.3 10 16.6 10 20 C6.7 20 3.4 20 0 20 C0 13.4 0 6.8 0 0 Z " fill="#000000" transform="translate(290,180)"/>
<path d="M0 0 C13.2 0 26.4 0 40 0 C40 9.9 40 19.8 40 30 C36.7 30 33.4 30 30 30 C30 23.4 30 16.8 30 10 C26.7 10 23.4 10 20 10 C20 13.3 20 16.6 20 20 C16.7 20 13.4 20 10 20 C10 16.7 10 13.4 10 10 C6.7 10 3.4 10 0 10 C0 6.7 0 3.4 0 0 Z " fill="#000000" transform="translate(210,40)"/>
<path d="M0 0 C3.3 0 6.6 0 10 0 C10 3.3 10 6.6 10 10 C13.3 10 16.6 10 20 10 C20 6.7 20 3.4 20 0 C23.3 0 26.6 0 30 0 C30 9.9 30 19.8 30 30 C26.7 30 23.4 30 20 30 C20 26.7 20 23.4 20 20 C13.4 20 6.8 20 0 20 C0 13.4 0 6.8 0 0 Z " fill="#FFFFFF" transform="translate(250,290)"/>
<path d="M0 0 C3.3 0 6.6 0 10 0 C10 3.3 10 6.6 10 10 C13.3 10 16.6 10 20 10 C20 16.6 20 23.2 20 30 C13.4 30 6.8 30 0 30 C0 26.7 0 23.4 0 20 C-3.3 20 -6.6 20 -10 20 C-10 16.7 -10 13.4 -10 10 C-6.7 10 -3.4 10 0 10 C0 6.7 0 3.4 0 0 Z " fill="#000000" transform="translate(250,120)"/>
<path d="M0 0 C6.6 0 13.2 0 20 0 C20 6.6 20 13.2 20 20 C16.7 20 13.4 20 10 20 C10 26.6 10 33.2 10 40 C6.7 40 3.4 40 0 40 C0 26.8 0 13.6 0 0 Z " fill="#000000" transform="translate(140,70)"/>
<path d="M0 0 C3.3 0 6.6 0 10 0 C10 3.3 10 6.6 10 10 C16.6 10 23.2 10 30 10 C30 13.3 30 16.6 30 20 C26.7 20 23.4 20 20 20 C20 23.3 20 26.6 20 30 C16.7 30 13.4 30 10 30 C10 26.7 10 23.4 10 20 C6.7 20 3.4 20 0 20 C0 13.4 0 6.8 0 0 Z " fill="#000000" transform="translate(300,240)"/>
<path d="M0 0 C3.3 0 6.6 0 10 0 C10 9.9 10 19.8 10 30 C3.4 30 -3.2 30 -10 30 C-10 23.4 -10 16.8 -10 10 C-6.7 10 -3.4 10 0 10 C0 6.7 0 3.4 0 0 Z " fill="#000000" transform="translate(320,210)"/>
<path d="M0 0 C3.3 0 6.6 0 10 0 C10 3.3 10 6.6 10 10 C13.3 10 16.6 10 20 10 C20 16.6 20 23.2 20 30 C13.4 30 6.8 30 0 30 C0 20.1 0 10.2 0 0 Z " fill="#000000" transform="translate(240,190)"/>
<path d="M0 0 C6.6 0 13.2 0 20 0 C20 3.3 20 6.6 20 10 C16.7 10 13.4 10 10 10 C10 13.3 10 16.6 10 20 C6.7 20 3.4 20 0 20 C0 23.3 0 26.6 0 30 C-3.3 30 -6.6 30 -10 30 C-10 23.4 -10 16.8 -10 10 C-6.7 10 -3.4 10 0 10 C0 6.7 0 3.4 0 0 Z " fill="#000000" transform="translate(140,40)"/>
<path d="M0 0 C3.3 0 6.6 0 10 0 C10 9.9 10 19.8 10 30 C3.4 30 -3.2 30 -10 30 C-10 26.7 -10 23.4 -10 20 C-6.7 20 -3.4 20 0 20 C0 13.4 0 6.8 0 0 Z " fill="#000000" transform="translate(60,190)"/>
<path d="M0 0 C3.3 0 6.6 0 10 0 C10 6.6 10 13.2 10 20 C3.4 20 -3.2 20 -10 20 C-10 16.7 -10 13.4 -10 10 C-6.7 10 -3.4 10 0 10 C0 6.7 0 3.4 0 0 Z " fill="#FFFFFF" transform="translate(150,250)"/>
<path d="M0 0 C3.3 0 6.6 0 10 0 C10 6.6 10 13.2 10 20 C3.4 20 -3.2 20 -10 20 C-10 16.7 -10 13.4 -10 10 C-6.7 10 -3.4 10 0 10 C0 6.7 0 3.4 0 0 Z " fill="#000000" transform="translate(190,240)"/>
<path d="M0 0 C3.3 0 6.6 0 10 0 C10 3.3 10 6.6 10 10 C13.3 10 16.6 10 20 10 C20 13.3 20 16.6 20 20 C13.4 20 6.8 20 0 20 C0 13.4 0 6.8 0 0 Z " fill="#000000" transform="translate(60,230)"/>
<path d="M0 0 C6.6 0 13.2 0 20 0 C20 3.3 20 6.6 20 10 C16.7 10 13.4 10 10 10 C10 13.3 10 16.6 10 20 C6.7 20 3.4 20 0 20 C0 13.4 0 6.8 0 0 Z " fill="#000000" transform="translate(90,200)"/>
<path d="M0 0 C3.3 0 6.6 0 10 0 C10 9.9 10 19.8 10 30 C6.7 30 3.4 30 0 30 C0 20.1 0 10.2 0 0 Z " fill="#000000" transform="translate(40,170)"/>
<path d="M0 0 C3.3 0 6.6 0 10 0 C10 6.6 10 13.2 10 20 C3.4 20 -3.2 20 -10 20 C-10 16.7 -10 13.4 -10 10 C-6.7 10 -3.4 10 0 10 C0 6.7 0 3.4 0 0 Z " fill="#FFFFFF" transform="translate(110,160)"/>
<path d="M0 0 C3.3 0 6.6 0 10 0 C10 3.3 10 6.6 10 10 C13.3 10 16.6 10 20 10 C20 13.3 20 16.6 20 20 C13.4 20 6.8 20 0 20 C0 13.4 0 6.8 0 0 Z " fill="#000000" transform="translate(50,150)"/>
<path d="M0 0 C6.6 0 13.2 0 20 0 C20 3.3 20 6.6 20 10 C16.7 10 13.4 10 10 10 C10 13.3 10 16.6 10 20 C6.7 20 3.4 20 0 20 C0 13.4 0 6.8 0 0 Z " fill="#FFFFFF" transform="translate(140,130)"/>
<path d="M0 0 C3.3 0 6.6 0 10 0 C10 6.6 10 13.2 10 20 C3.4 20 -3.2 20 -10 20 C-10 16.7 -10 13.4 -10 10 C-6.7 10 -3.4 10 0 10 C0 6.7 0 3.4 0 0 Z " fill="#FFFFFF" transform="translate(150,50)"/>
<path d="M0 0 C3.3 0 6.6 0 10 0 C10 6.6 10 13.2 10 20 C6.7 20 3.4 20 0 20 C0 13.4 0 6.8 0 0 Z " fill="#000000" transform="translate(310,310)"/>
<path d="M0 0 C3.3 0 6.6 0 10 0 C10 6.6 10 13.2 10 20 C6.7 20 3.4 20 0 20 C0 13.4 0 6.8 0 0 Z " fill="#000000" transform="translate(320,290)"/>
<path d="M0 0 C3.3 0 6.6 0 10 0 C10 6.6 10 13.2 10 20 C6.7 20 3.4 20 0 20 C0 13.4 0 6.8 0 0 Z " fill="#FFFFFF" transform="translate(150,280)"/>
<path d="M0 0 C6.6 0 13.2 0 20 0 C20 3.3 20 6.6 20 10 C13.4 10 6.8 10 0 10 C0 6.7 0 3.4 0 0 Z " fill="#000000" transform="translate(180,270)"/>
<path d="M0 0 C6.6 0 13.2 0 20 0 C20 3.3 20 6.6 20 10 C13.4 10 6.8 10 0 10 C0 6.7 0 3.4 0 0 Z " fill="#000000" transform="translate(100,220)"/>
<path d="M0 0 C6.6 0 13.2 0 20 0 C20 3.3 20 6.6 20 10 C13.4 10 6.8 10 0 10 C0 6.7 0 3.4 0 0 Z " fill="#FFFFFF" transform="translate(90,190)"/>
<path d="M0 0 C6.6 0 13.2 0 20 0 C20 3.3 20 6.6 20 10 C13.4 10 6.8 10 0 10 C0 6.7 0 3.4 0 0 Z " fill="#000000" transform="translate(270,150)"/>
<path d="M0 0 C6.6 0 13.2 0 20 0 C20 3.3 20 6.6 20 10 C13.4 10 6.8 10 0 10 C0 6.7 0 3.4 0 0 Z " fill="#FFFFFF" transform="translate(250,150)"/>
<path d="M0 0 C6.6 0 13.2 0 20 0 C20 3.3 20 6.6 20 10 C13.4 10 6.8 10 0 10 C0 6.7 0 3.4 0 0 Z " fill="#FFFFFF" transform="translate(180,150)"/>
<path d="M0 0 C3.3 0 6.6 0 10 0 C10 6.6 10 13.2 10 20 C6.7 20 3.4 20 0 20 C0 13.4 0 6.8 0 0 Z " fill="#000000" transform="translate(130,130)"/>
<path d="M0 0 C6.6 0 13.2 0 20 0 C20 3.3 20 6.6 20 10 C13.4 10 6.8 10 0 10 C0 6.7 0 3.4 0 0 Z " fill="#FFFFFF" transform="translate(210,120)"/>
<path d="M0 0 C6.6 0 13.2 0 20 0 C20 3.3 20 6.6 20 10 C13.4 10 6.8 10 0 10 C0 6.7 0 3.4 0 0 Z " fill="#000000" transform="translate(140,120)"/>
<path d="M0 0 C6.6 0 13.2 0 20 0 C20 3.3 20 6.6 20 10 C13.4 10 6.8 10 0 10 C0 6.7 0 3.4 0 0 Z " fill="#000000" transform="translate(90,120)"/>
<path d="M0 0 C3.3 0 6.6 0 10 0 C10 6.6 10 13.2 10 20 C6.7 20 3.4 20 0 20 C0 13.4 0 6.8 0 0 Z " fill="#000000" transform="translate(120,90)"/>
<path d="M0 0 C3.3 0 6.6 0 10 0 C10 6.6 10 13.2 10 20 C6.7 20 3.4 20 0 20 C0 13.4 0 6.8 0 0 Z " fill="#000000" transform="translate(220,70)"/>
<path d="M0 0 C6.6 0 13.2 0 20 0 C20 3.3 20 6.6 20 10 C13.4 10 6.8 10 0 10 C0 6.7 0 3.4 0 0 Z " fill="#000000" transform="translate(180,60)"/>
<path d="M0 0 C3.3 0 6.6 0 10 0 C10 6.6 10 13.2 10 20 C6.7 20 3.4 20 0 20 C0 13.4 0 6.8 0 0 Z " fill="#000000" transform="translate(160,50)"/>
<path d="M0 0 C3.3 0 6.6 0 10 0 C10 3.3 10 6.6 10 10 C6.7 10 3.4 10 0 10 C0 6.7 0 3.4 0 0 Z " fill="#000000" transform="translate(120,320)"/>
<path d="M0 0 C3.3 0 6.6 0 10 0 C10 3.3 10 6.6 10 10 C6.7 10 3.4 10 0 10 C0 6.7 0 3.4 0 0 Z " fill="#FFFFFF" transform="translate(190,310)"/>
<path d="M0 0 C3.3 0 6.6 0 10 0 C10 3.3 10 6.6 10 10 C6.7 10 3.4 10 0 10 C0 6.7 0 3.4 0 0 Z " fill="#FFFFFF" transform="translate(230,300)"/>
<path d="M0 0 C3.3 0 6.6 0 10 0 C10 3.3 10 6.6 10 10 C6.7 10 3.4 10 0 10 C0 6.7 0 3.4 0 0 Z " fill="#FFFFFF" transform="translate(200,290)"/>
<path d="M0 0 C3.3 0 6.6 0 10 0 C10 3.3 10 6.6 10 10 C6.7 10 3.4 10 0 10 C0 6.7 0 3.4 0 0 Z " fill="#000000" transform="translate(200,280)"/>
<path d="M0 0 C3.3 0 6.6 0 10 0 C10 3.3 10 6.6 10 10 C6.7 10 3.4 10 0 10 C0 6.7 0 3.4 0 0 Z " fill="#000000" transform="translate(320,270)"/>
<path d="M0 0 C3.3 0 6.6 0 10 0 C10 3.3 10 6.6 10 10 C6.7 10 3.4 10 0 10 C0 6.7 0 3.4 0 0 Z " fill="#FFFFFF" transform="translate(200,270)"/>
<path d="M0 0 C3.3 0 6.6 0 10 0 C10 3.3 10 6.6 10 10 C6.7 10 3.4 10 0 10 C0 6.7 0 3.4 0 0 Z " fill="#000000" transform="translate(260,260)"/>
<path d="M0 0 C3.3 0 6.6 0 10 0 C10 3.3 10 6.6 10 10 C6.7 10 3.4 10 0 10 C0 6.7 0 3.4 0 0 Z " fill="#000000" transform="translate(140,250)"/>
<path d="M0 0 C3.3 0 6.6 0 10 0 C10 3.3 10 6.6 10 10 C6.7 10 3.4 10 0 10 C0 6.7 0 3.4 0 0 Z " fill="#FFFFFF" transform="translate(130,250)"/>
<path d="M0 0 C3.3 0 6.6 0 10 0 C10 3.3 10 6.6 10 10 C6.7 10 3.4 10 0 10 C0 6.7 0 3.4 0 0 Z " fill="#000000" transform="translate(150,240)"/>
<path d="M0 0 C3.3 0 6.6 0 10 0 C10 3.3 10 6.6 10 10 C6.7 10 3.4 10 0 10 C0 6.7 0 3.4 0 0 Z " fill="#FFFFFF" transform="translate(140,240)"/>
<path d="M0 0 C3.3 0 6.6 0 10 0 C10 3.3 10 6.6 10 10 C6.7 10 3.4 10 0 10 C0 6.7 0 3.4 0 0 Z " fill="#000000" transform="translate(40,240)"/>
<path d="M0 0 C3.3 0 6.6 0 10 0 C10 3.3 10 6.6 10 10 C6.7 10 3.4 10 0 10 C0 6.7 0 3.4 0 0 Z " fill="#FFFFFF" transform="translate(70,230)"/>
<path d="M0 0 C3.3 0 6.6 0 10 0 C10 3.3 10 6.6 10 10 C6.7 10 3.4 10 0 10 C0 6.7 0 3.4 0 0 Z " fill="#000000" transform="translate(40,220)"/>
<path d="M0 0 C3.3 0 6.6 0 10 0 C10 3.3 10 6.6 10 10 C6.7 10 3.4 10 0 10 C0 6.7 0 3.4 0 0 Z " fill="#000000" transform="translate(290,210)"/>
<path d="M0 0 C3.3 0 6.6 0 10 0 C10 3.3 10 6.6 10 10 C6.7 10 3.4 10 0 10 C0 6.7 0 3.4 0 0 Z " fill="#FFFFFF" transform="translate(250,210)"/>
<path d="M0 0 C3.3 0 6.6 0 10 0 C10 3.3 10 6.6 10 10 C6.7 10 3.4 10 0 10 C0 6.7 0 3.4 0 0 Z " fill="#FFFFFF" transform="translate(210,210)"/>
<path d="M0 0 C3.3 0 6.6 0 10 0 C10 3.3 10 6.6 10 10 C6.7 10 3.4 10 0 10 C0 6.7 0 3.4 0 0 Z " fill="#000000" transform="translate(190,190)"/>
<path d="M0 0 C3.3 0 6.6 0 10 0 C10 3.3 10 6.6 10 10 C6.7 10 3.4 10 0 10 C0 6.7 0 3.4 0 0 Z " fill="#000000" transform="translate(80,190)"/>
<path d="M0 0 C3.3 0 6.6 0 10 0 C10 3.3 10 6.6 10 10 C6.7 10 3.4 10 0 10 C0 6.7 0 3.4 0 0 Z " fill="#000000" transform="translate(260,180)"/>
<path d="M0 0 C3.3 0 6.6 0 10 0 C10 3.3 10 6.6 10 10 C6.7 10 3.4 10 0 10 C0 6.7 0 3.4 0 0 Z " fill="#000000" transform="translate(270,170)"/>
<path d="M0 0 C3.3 0 6.6 0 10 0 C10 3.3 10 6.6 10 10 C6.7 10 3.4 10 0 10 C0 6.7 0 3.4 0 0 Z " fill="#FFFFFF" transform="translate(260,170)"/>
<path d="M0 0 C3.3 0 6.6 0 10 0 C10 3.3 10 6.6 10 10 C6.7 10 3.4 10 0 10 C0 6.7 0 3.4 0 0 Z " fill="#000000" transform="translate(70,170)"/>
<path d="M0 0 C3.3 0 6.6 0 10 0 C10 3.3 10 6.6 10 10 C6.7 10 3.4 10 0 10 C0 6.7 0 3.4 0 0 Z " fill="#000000" transform="translate(290,160)"/>
<path d="M0 0 C3.3 0 6.6 0 10 0 C10 3.3 10 6.6 10 10 C6.7 10 3.4 10 0 10 C0 6.7 0 3.4 0 0 Z " fill="#FFFFFF" transform="translate(200,160)"/>
<path d="M0 0 C3.3 0 6.6 0 10 0 C10 3.3 10 6.6 10 10 C6.7 10 3.4 10 0 10 C0 6.7 0 3.4 0 0 Z " fill="#FFFFFF" transform="translate(170,160)"/>
<path d="M0 0 C3.3 0 6.6 0 10 0 C10 3.3 10 6.6 10 10 C6.7 10 3.4 10 0 10 C0 6.7 0 3.4 0 0 Z " fill="#FFFFFF" transform="translate(290,150)"/>
<path d="M0 0 C3.3 0 6.6 0 10 0 C10 3.3 10 6.6 10 10 C6.7 10 3.4 10 0 10 C0 6.7 0 3.4 0 0 Z " fill="#000000" transform="translate(200,150)"/>
<path d="M0 0 C3.3 0 6.6 0 10 0 C10 3.3 10 6.6 10 10 C6.7 10 3.4 10 0 10 C0 6.7 0 3.4 0 0 Z " fill="#000000" transform="translate(140,150)"/>
<path d="M0 0 C3.3 0 6.6 0 10 0 C10 3.3 10 6.6 10 10 C6.7 10 3.4 10 0 10 C0 6.7 0 3.4 0 0 Z " fill="#FFFFFF" transform="translate(240,140)"/>
<path d="M0 0 C3.3 0 6.6 0 10 0 C10 3.3 10 6.6 10 10 C6.7 10 3.4 10 0 10 C0 6.7 0 3.4 0 0 Z " fill="#000000" transform="translate(320,130)"/>
<path d="M0 0 C3.3 0 6.6 0 10 0 C10 3.3 10 6.6 10 10 C6.7 10 3.4 10 0 10 C0 6.7 0 3.4 0 0 Z " fill="#FFFFFF" transform="translate(230,130)"/>
<path d="M0 0 C3.3 0 6.6 0 10 0 C10 3.3 10 6.6 10 10 C6.7 10 3.4 10 0 10 C0 6.7 0 3.4 0 0 Z " fill="#FFFFFF" transform="translate(180,130)"/>
<path d="M0 0 C3.3 0 6.6 0 10 0 C10 3.3 10 6.6 10 10 C6.7 10 3.4 10 0 10 C0 6.7 0 3.4 0 0 Z " fill="#000000" transform="translate(270,120)"/>
<path d="M0 0 C3.3 0 6.6 0 10 0 C10 3.3 10 6.6 10 10 C6.7 10 3.4 10 0 10 C0 6.7 0 3.4 0 0 Z " fill="#FFFFFF" transform="translate(240,120)"/>
<path d="M0 0 C3.3 0 6.6 0 10 0 C10 3.3 10 6.6 10 10 C6.7 10 3.4 10 0 10 C0 6.7 0 3.4 0 0 Z " fill="#FFFFFF" transform="translate(190,120)"/>
<path d="M0 0 C3.3 0 6.6 0 10 0 C10 3.3 10 6.6 10 10 C6.7 10 3.4 10 0 10 C0 6.7 0 3.4 0 0 Z " fill="#000000" transform="translate(180,120)"/>
<path d="M0 0 C3.3 0 6.6 0 10 0 C10 3.3 10 6.6 10 10 C6.7 10 3.4 10 0 10 C0 6.7 0 3.4 0 0 Z " fill="#000000" transform="translate(120,120)"/>
<path d="M0 0 C3.3 0 6.6 0 10 0 C10 3.3 10 6.6 10 10 C6.7 10 3.4 10 0 10 C0 6.7 0 3.4 0 0 Z " fill="#000000" transform="translate(40,120)"/>
<path d="M0 0 C3.3 0 6.6 0 10 0 C10 3.3 10 6.6 10 10 C6.7 10 3.4 10 0 10 C0 6.7 0 3.4 0 0 Z " fill="#FFFFFF" transform="translate(180,110)"/>
<path d="M0 0 C3.3 0 6.6 0 10 0 C10 3.3 10 6.6 10 10 C6.7 10 3.4 10 0 10 C0 6.7 0 3.4 0 0 Z " fill="#000000" transform="translate(170,110)"/>
<path d="M0 0 C3.3 0 6.6 0 10 0 C10 3.3 10 6.6 10 10 C6.7 10 3.4 10 0 10 C0 6.7 0 3.4 0 0 Z " fill="#000000" transform="translate(130,110)"/>
<path d="M0 0 C3.3 0 6.6 0 10 0 C10 3.3 10 6.6 10 10 C6.7 10 3.4 10 0 10 C0 6.7 0 3.4 0 0 Z " fill="#FFFFFF" transform="translate(190,100)"/>
<path d="M0 0 C3.3 0 6.6 0 10 0 C10 3.3 10 6.6 10 10 C6.7 10 3.4 10 0 10 C0 6.7 0 3.4 0 0 Z " fill="#000000" transform="translate(180,100)"/>
<path d="M0 0 C3.3 0 6.6 0 10 0 C10 3.3 10 6.6 10 10 C6.7 10 3.4 10 0 10 C0 6.7 0 3.4 0 0 Z " fill="#000000" transform="translate(160,100)"/>
<path d="M0 0 C3.3 0 6.6 0 10 0 C10 3.3 10 6.6 10 10 C6.7 10 3.4 10 0 10 C0 6.7 0 3.4 0 0 Z " fill="#000000" transform="translate(230,90)"/>
<path d="M0 0 C3.3 0 6.6 0 10 0 C10 3.3 10 6.6 10 10 C6.7 10 3.4 10 0 10 C0 6.7 0 3.4 0 0 Z " fill="#000000" transform="translate(200,70)"/>
<path d="M0 0 C3.3 0 6.6 0 10 0 C10 3.3 10 6.6 10 10 C6.7 10 3.4 10 0 10 C0 6.7 0 3.4 0 0 Z " fill="#000000" transform="translate(170,70)"/>
<path d="M0 0 C3.3 0 6.6 0 10 0 C10 3.3 10 6.6 10 10 C6.7 10 3.4 10 0 10 C0 6.7 0 3.4 0 0 Z " fill="#000000" transform="translate(210,60)"/>
<path d="M0 0 C3.3 0 6.6 0 10 0 C10 3.3 10 6.6 10 10 C6.7 10 3.4 10 0 10 C0 6.7 0 3.4 0 0 Z " fill="#000000" transform="translate(200,50)"/>
<path d="M0 0 C3.3 0 6.6 0 10 0 C10 3.3 10 6.6 10 10 C6.7 10 3.4 10 0 10 C0 6.7 0 3.4 0 0 Z " fill="#000000" transform="translate(180,40)"/>
</svg>
